<svg width="58" height="59" viewBox="0 0 58 59" fill="none" xmlns="http://www.w3.org/2000/svg">
<path fill-rule="evenodd" clip-rule="evenodd" d="M28.961 0.886963C13.0389 0.886963 0.131104 13.8006 0.131104 29.7313C0.131104 44.3568 11.0126 56.4397 25.1175 58.3204V52.5082C25.1175 50.8699 24.0849 49.3959 22.5316 48.8753C14.3932 46.1394 8.57095 38.3572 8.78584 29.2453C9.04688 18.1517 18.0795 9.42921 29.1687 9.5417C40.2189 9.6542 49.1419 18.6507 49.1419 29.7327C49.1419 30.7711 49.0612 31.8095 48.9054 32.8349C46.4349 49.119 25.2358 58.2713 25.1204 58.3218C26.3766 58.4877 27.6587 58.5756 28.961 58.5756C44.8831 58.5756 57.7909 45.662 57.7909 29.7313C57.7909 13.8006 44.8831 0.886963 28.961 0.886963Z" fill="#29B6F6"/>
</svg>
