<svg width="55" height="65" viewBox="0 0 55 65" fill="none" xmlns="http://www.w3.org/2000/svg">
<path d="M19.3543 40.3715C21.447 40.3715 23.1435 42.0696 23.1435 44.1642V60.4341C23.1435 62.5288 21.447 64.2266 19.3543 64.2266C17.2619 64.2266 15.5654 62.5288 15.5654 60.4341V44.1642C15.5654 42.0698 17.2619 40.3717 19.3543 40.3717V40.3715Z" fill="#4CB050"/>
<path d="M10.704 20.8105C10.6915 20.9544 10.6805 21.0998 10.6805 21.2468V45.8972C10.6805 48.5482 12.7769 50.6839 15.3794 50.6839H40.4234C43.0261 50.6839 45.1225 48.5479 45.1225 45.8972V21.2468C45.1225 21.0998 45.1172 20.9538 45.105 20.8105H10.704Z" fill="#4CB050"/>
<path d="M36.4491 40.3714C38.5417 40.3714 40.2382 42.0695 40.2382 44.1642V60.4341C40.2382 62.5287 38.5417 64.2266 36.4491 64.2266C34.3566 64.2266 32.6602 62.5287 32.6602 60.4341V44.1642C32.6602 42.0698 34.3566 40.3717 36.4491 40.3717V40.3714ZM4.59251 23.0043C6.68492 23.0043 8.38141 24.7024 8.38141 26.797V43.0669C8.38141 45.1616 6.68492 46.8597 4.59251 46.8597C2.49983 46.8597 0.803345 45.1616 0.803345 43.0672V26.7973C0.803079 24.7026 2.49957 23.0043 4.59251 23.0043ZM51.2111 23.0043C53.3035 23.0043 55 24.7024 55 26.797V43.0669C55 45.1616 53.3035 46.8597 51.2111 46.8597C49.1184 46.8597 47.422 45.1616 47.422 43.0672V26.7973C47.422 24.7026 49.1184 23.0043 51.2111 23.0043ZM10.8147 19.1913C10.92 11.6196 17.5224 5.41154 25.9974 4.59338H29.8054C38.281 5.41181 44.8828 11.6201 44.9882 19.1913H10.8147Z" fill="#4CB050"/>
<path d="M12.1326 3.86255L16.1295 10.7924M43.6712 3.86255L39.6739 10.7924" stroke="#4CB050" stroke-width="6.0364" stroke-linecap="round" stroke-linejoin="round"/>
<path d="M22.8115 12.4058C22.8147 13.4642 21.9396 14.3247 20.8566 14.3276C19.7742 14.3303 18.8941 13.4749 18.8909 12.4165V12.4058C18.8879 11.3472 19.7631 10.4869 20.8457 10.484C21.9281 10.4811 22.8083 11.3363 22.8115 12.3952V12.4058ZM37.4445 12.4058C37.4477 13.4642 36.5726 14.3247 35.4897 14.3276C34.4073 14.3303 33.5271 13.4749 33.5239 12.4165V12.4058C33.521 11.3472 34.3961 10.4869 35.4787 10.484C36.5611 10.4811 37.4413 11.3363 37.4445 12.3952V12.4058Z" fill="white"/>
</svg>
