<svg width="54" height="67" viewBox="0 0 54 67" fill="none" xmlns="http://www.w3.org/2000/svg">
<path d="M51.8782 22.8465C51.4964 23.1428 44.7557 26.941 44.7557 35.3866C44.7557 45.1553 53.333 48.6112 53.5897 48.6968C53.5502 48.9074 52.2271 53.4297 49.0674 58.0376C46.25 62.0926 43.3076 66.1409 38.8313 66.1409C34.3551 66.1409 33.2031 63.5408 28.0357 63.5408C22.9999 63.5408 21.2094 66.2265 17.115 66.2265C13.0206 66.2265 10.1637 62.4744 6.87892 57.8665C3.07412 52.4555 0 44.0494 0 36.0712C0 23.2744 8.32053 16.4877 16.5094 16.4877C20.8606 16.4877 24.4876 19.3445 27.2194 19.3445C29.8196 19.3445 33.8745 16.3165 38.8247 16.3165C40.7008 16.3165 47.4415 16.4877 51.8782 22.8465ZM36.4747 10.8989C38.5219 8.46993 39.9701 5.09959 39.9701 1.72925C39.9701 1.26188 39.9306 0.787924 39.8451 0.406128C36.5142 0.531199 32.5514 2.6245 30.1619 5.39581C28.2858 7.5286 26.5348 10.8989 26.5348 14.3154C26.5348 14.8288 26.6204 15.3423 26.6599 15.5068C26.8706 15.5463 27.2129 15.5924 27.5552 15.5924C30.5437 15.5924 34.3024 13.5913 36.4747 10.8989Z" fill="white"/>
</svg>
