<svg width="436" height="519" viewBox="0 0 436 519" fill="none" xmlns="http://www.w3.org/2000/svg">
<path d="M430.334 213.043L378.021 171.728V77.8013C378.021 71.4108 375.494 69.6273 370.961 69.6273H323.107C317.905 69.6273 314.71 70.6677 314.71 77.8013V121.718C245.528 67.1009 170.551 7.87673 167.727 5.64747C162.079 1.18894 158.587 0 154.5 0C150.487 0 146.995 1.18894 141.273 5.64747C135.626 10.106 -113.755 207.099 -121.334 213.043C-130.548 220.326 -127.948 230.803 -117.693 230.803H-69.0208V495.045C-69.0208 512.136 -62.1844 518.973 -45.9108 518.973H354.911C371.184 518.973 378.021 512.136 378.021 495.045V230.729H426.693C436.948 230.729 439.548 220.326 430.334 213.043ZM337.002 457.891C337.002 469.706 330.909 477.88 318.574 477.88H-9.6481C-21.9834 477.88 -28.0767 469.706 -28.0767 457.891V210.963C-28.0767 196.621 -21.8348 187.481 -14.6268 181.834L143.205 57.2178C147.366 53.9482 150.933 52.5363 154.426 52.5363C157.918 52.5363 161.485 53.9482 165.646 57.2921L323.478 181.908C330.612 187.555 336.928 196.695 336.928 211.037V457.891H337.002Z" fill="#FA9012"/>
<path d="M323.631 181.839L165.725 57.1491C161.564 53.8795 157.848 52.4677 154.504 52.4677C151.086 52.4677 147.445 53.8795 143.284 57.2234L-14.6224 181.839C-21.756 187.487 -28.0723 196.627 -28.0723 210.968V457.896C-28.0723 469.711 -21.9789 477.885 -9.64367 477.885H318.578C330.913 477.885 337.007 469.711 337.007 457.896V210.968C337.007 196.627 330.765 187.487 323.631 181.839ZM296.137 420.816C296.137 431.814 289.895 436.941 280.755 436.941H28.3281C19.1881 436.941 12.9462 431.814 12.9462 420.816V227.985C12.9462 217.285 15.4727 211.191 23.0522 205.172C27.3621 201.754 142.169 111.097 145.216 108.719C148.262 106.267 151.532 105.078 154.504 105.078C157.477 105.078 160.746 106.342 163.793 108.719C166.84 111.172 281.647 201.828 285.957 205.172C293.536 211.191 296.063 217.359 296.063 227.985L296.137 420.816Z" fill="#FFAB1F"/>
<path d="M285.944 205.164C281.634 201.82 166.827 111.089 163.78 108.711C160.734 106.259 157.464 105.07 154.492 105.07C151.519 105.07 148.25 106.333 145.203 108.711C142.157 111.164 27.3495 201.82 23.0396 205.164C15.4601 211.183 12.9336 217.351 12.9336 227.977V420.808C12.9336 431.806 19.1755 436.933 28.3155 436.933H280.742C289.882 436.933 296.124 431.806 296.124 420.808V227.977C296.05 217.351 293.524 211.183 285.944 205.164ZM255.106 383.728C255.106 392.571 250.201 395.989 243.514 395.989H65.4699C58.7821 395.989 53.8777 392.571 53.8777 383.728V245.068C53.8777 238.9 53.8777 233.996 60.6398 228.571C65.0984 225.005 144.757 162.139 147.135 160.282C149.513 158.424 151.891 157.458 154.492 157.458C157.167 157.532 159.768 158.573 161.848 160.282C164.226 162.139 243.885 225.005 248.344 228.571C255.106 233.996 255.106 238.9 255.106 245.068V383.728Z" fill="#FFBE41"/>
<path d="M248.355 228.567C243.896 225 164.237 162.135 161.859 160.277C159.779 158.494 157.178 157.528 154.503 157.453C151.902 157.453 149.524 158.419 147.146 160.277C144.768 162.135 65.035 225 60.6508 228.567C53.8887 233.991 53.8887 238.896 53.8887 245.063V383.724C53.8887 392.566 58.7931 395.984 65.4808 395.984H243.45C250.138 395.984 255.042 392.566 255.042 383.724V245.063C255.117 238.821 255.117 233.917 248.355 228.567ZM214.173 346.718C214.173 353.554 210.754 355.04 205.999 355.04H103.081C98.3253 355.04 94.9071 353.48 94.9071 346.718V262.08C94.9071 257.324 97.0621 252.717 100.703 249.745C102.784 248.036 147.518 213.036 149.078 211.773C152.199 209.172 156.806 209.172 159.927 211.773C161.562 213.036 206.222 248.036 208.302 249.745C212.018 252.791 214.173 257.324 214.098 262.08L214.173 346.718Z" fill="#FFD260"/>
<path d="M154.501 354.97H205.923C210.678 354.97 214.096 353.41 214.096 346.648V262.085C214.096 257.329 211.942 252.722 208.3 249.749C206.22 248.04 161.486 213.041 159.925 211.778C156.804 209.177 152.197 209.177 149.076 211.778C147.516 213.041 102.782 248.04 100.701 249.749C96.9858 252.796 94.8309 257.329 94.9052 262.085V346.648C94.9052 353.484 98.3234 354.97 103.079 354.97H154.501Z" fill="#FFE780"/>
</svg>
