<svg width="59" height="59" viewBox="0 0 59 59" fill="none" xmlns="http://www.w3.org/2000/svg">
<path d="M13.2863 0.845459H45.333C52.4082 0.845459 58.1484 6.5856 58.1484 13.6664V45.7132C58.1484 52.794 52.4082 58.5341 45.3274 58.5341H13.2863C6.20547 58.5285 0.465332 52.7884 0.465332 45.7075V13.6664C0.465332 6.5856 6.20547 0.845459 13.2863 0.845459Z" fill="white"/>
<path d="M50.2175 24.1161L46.2518 20.9841V13.8638C46.2518 13.3794 46.0602 13.2442 45.7166 13.2442H42.0889C41.6946 13.2442 41.4524 13.323 41.4524 13.8638V17.193C36.2079 13.0526 30.5241 8.56305 30.3101 8.39406C29.882 8.05607 29.6172 7.96594 29.3074 7.96594C29.0032 7.96594 28.7384 8.05607 28.3047 8.39406C27.8766 8.73205 8.97186 23.6654 8.39728 24.1161C7.69877 24.6681 7.89593 25.4624 8.6733 25.4624H12.363V45.4937C12.363 46.7893 12.8812 47.3076 14.1149 47.3076H44.4999C45.7335 47.3076 46.2518 46.7893 46.2518 45.4937V25.4567H49.9414C50.7188 25.4567 50.916 24.6681 50.2175 24.1161ZM43.1423 42.6772C43.1423 43.5728 42.6804 44.1925 41.7453 44.1925H16.8638C15.9287 44.1925 15.4668 43.5728 15.4668 42.6772V23.9583C15.4668 22.8711 15.94 22.1783 16.4864 21.7502L28.4511 12.3034C28.7666 12.0556 29.037 11.9486 29.3017 11.9486C29.5665 11.9486 29.8369 12.0556 30.1523 12.3091L42.1171 21.7558C42.6578 22.1839 43.1367 22.8768 43.1367 23.964V42.6772H43.1423Z" fill="#FA9012"/>
<path d="M42.1285 21.7506L30.1582 12.2982C29.8427 12.0504 29.5611 11.9434 29.3076 11.9434C29.0485 11.9434 28.7724 12.0504 28.457 12.3039L16.4866 21.7506C15.9459 22.1787 15.467 22.8716 15.467 23.9588V42.6776C15.467 43.5733 15.929 44.1929 16.8641 44.1929H41.7455C42.6806 44.1929 43.1425 43.5733 43.1425 42.6776V23.9588C43.1425 22.8716 42.6693 22.1787 42.1285 21.7506ZM40.0443 39.8667C40.0443 40.7004 39.5711 41.0891 38.8782 41.0891H19.7426C19.0497 41.0891 18.5765 40.7004 18.5765 39.8667V25.2488C18.5765 24.4376 18.768 23.9757 19.3426 23.5194C19.6693 23.2603 28.3725 16.3879 28.6034 16.2076C28.8344 16.0217 29.0823 15.9316 29.3076 15.9316C29.5329 15.9316 29.7808 16.0274 30.0117 16.2076C30.2427 16.3935 38.9458 23.2659 39.2726 23.5194C39.8471 23.9757 40.0387 24.4432 40.0387 25.2488L40.0443 39.8667Z" fill="#FFAB1F"/>
<path d="M39.2717 23.5187C38.945 23.2652 30.2418 16.3872 30.0109 16.2069C29.7799 16.021 29.5321 15.9309 29.3068 15.9309C29.0814 15.9309 28.8336 16.0267 28.6026 16.2069C28.3717 16.3928 19.6685 23.2652 19.3418 23.5187C18.7672 23.975 18.5757 24.4425 18.5757 25.2481V39.866C18.5757 40.6997 19.0489 41.0884 19.7417 41.0884H38.8774C39.5703 41.0884 40.0435 40.6997 40.0435 39.866V25.2481C40.0378 24.4425 39.8463 23.975 39.2717 23.5187ZM36.934 37.0551C36.934 37.7254 36.5622 37.9845 36.0552 37.9845H22.5583C22.0513 37.9845 21.6795 37.7254 21.6795 37.0551V26.5437C21.6795 26.0761 21.6795 25.7043 22.1921 25.2931C22.5301 25.0227 28.5688 20.2571 28.7491 20.1163C28.9293 19.9755 29.1096 19.9022 29.3068 19.9022C29.5095 19.9079 29.7067 19.9867 29.8644 20.1163C30.0447 20.2571 36.0834 25.0227 36.4214 25.2931C36.934 25.7043 36.934 26.0761 36.934 26.5437V37.0551Z" fill="#FFBE41"/>
<path d="M36.4223 25.2929C36.0843 25.0225 30.0456 20.2569 29.8653 20.116C29.7076 19.9808 29.5104 19.9076 29.3076 19.902C29.1105 19.902 28.9302 19.9752 28.75 20.116C28.5697 20.2569 22.5254 25.0225 22.193 25.2929C21.6804 25.7041 21.6804 26.0759 21.6804 26.5434V37.0548C21.6804 37.7251 22.0522 37.9843 22.5592 37.9843H36.0505C36.5575 37.9843 36.9292 37.7251 36.9292 37.0548V26.5434C36.9349 26.0702 36.9349 25.6984 36.4223 25.2929ZM33.831 34.2495C33.831 34.7678 33.5719 34.8804 33.2114 34.8804H25.4095C25.049 34.8804 24.7899 34.7621 24.7899 34.2495V27.8334C24.7899 27.4729 24.9533 27.1236 25.2293 26.8983C25.387 26.7687 28.7781 24.1155 28.8964 24.0198C29.133 23.8226 29.4823 23.8226 29.7189 24.0198C29.8428 24.1155 33.2283 26.7687 33.386 26.8983C33.6677 27.1293 33.831 27.4729 33.8254 27.8334L33.831 34.2495Z" fill="#FFD260"/>
<path d="M29.3074 34.8751H33.2056C33.5661 34.8751 33.8252 34.7568 33.8252 34.2442V27.8337C33.8252 27.4732 33.6618 27.1239 33.3858 26.8986C33.2281 26.769 29.837 24.1158 29.7187 24.0201C29.4821 23.8229 29.1328 23.8229 28.8962 24.0201C28.7779 24.1158 25.3868 26.769 25.2291 26.8986C24.9474 27.1295 24.7841 27.4732 24.7897 27.8337V34.2442C24.7897 34.7624 25.0488 34.8751 25.4093 34.8751H29.3074Z" fill="#FFE780"/>
</svg>
