<svg width="104" height="71" viewBox="0 0 104 71" fill="none" xmlns="http://www.w3.org/2000/svg">
<path fill-rule="evenodd" clip-rule="evenodd" d="M30.2381 70.2311C30.1781 69.9504 30.0177 68.5479 29.8818 67.1142C29.5194 63.2871 29.7158 63.6357 27.6009 63.0674C26.5861 62.7947 25.7353 62.5991 25.71 62.6328C25.6847 62.6664 24.7713 63.9179 23.68 65.414C22.5886 66.9101 21.6608 68.175 21.6179 68.2247C21.5504 68.3031 14.8782 64.5486 13.8065 63.8293C13.454 63.5926 13.5489 63.2803 14.8762 60.3016L16.3324 57.0335L15.0442 55.7267C14.3356 55.0079 13.6663 54.4199 13.5565 54.4199C13.447 54.4199 11.9438 55.0478 10.2164 55.8151C8.48874 56.5827 7.04041 57.1691 6.99795 57.1185C6.93992 57.0499 2.90676 50.0465 2.42195 49.1731C2.37724 49.0926 3.5677 48.1362 5.06707 47.0481C6.56666 45.9601 7.83773 44.9538 7.89193 44.8119C7.98835 44.5596 7.26079 41.3777 7.0605 41.1768C6.97289 41.0889 0.960296 40.3655 0.31584 40.3655C0.159807 40.3655 0.0803223 38.759 0.0803223 35.6052C0.0803223 32.4513 0.159807 30.8448 0.31584 30.8448C0.966393 30.8448 6.97334 30.1212 7.06208 30.0321C7.18357 29.9102 7.95177 27.0048 7.97051 26.5959C7.97773 26.4408 6.73895 25.3892 5.21746 24.2592C3.69619 23.129 2.48044 22.0966 2.51634 21.9652C2.57392 21.7532 6.80353 14.3225 6.99795 14.0918C7.04041 14.0412 8.48874 14.6276 10.2164 15.3952C11.9438 16.1625 13.447 16.7904 13.5565 16.7904C13.6663 16.7904 14.3356 16.2024 15.0442 15.4836L16.3324 14.1768L14.8762 10.9087C13.5475 7.92688 13.4538 7.61746 13.8065 7.37763C14.8166 6.69101 21.5486 2.90517 21.6174 2.98518C21.6606 3.03505 22.5886 4.30017 23.68 5.79629C24.7713 7.29239 25.6861 8.5455 25.7132 8.58064C25.7743 8.66065 29.2832 7.70881 29.4275 7.57325C29.4853 7.51885 29.6887 5.9239 29.8795 4.0286L30.2266 0.582565L44.5654 0.524307L58.9042 0.46582L63.5308 5.11465L68.1574 9.76324H75.5273H82.897L83.1863 9.06256C83.6316 7.9831 85.0264 7.17134 86.4232 7.1786C88.7098 7.19016 90.1777 8.65159 90.1777 10.9157C90.1777 11.8637 90.0477 12.3814 89.6697 12.9391C88.7764 14.2568 88.0558 14.6369 86.4519 14.6369C84.8514 14.6369 84.0902 14.2389 83.2906 12.9833L82.839 12.2742L74.9337 12.2656L67.0284 12.2568L62.4013 7.60771L57.7743 2.95866L46.371 3.01737L34.9677 3.07608L34.9035 5.51293L34.8394 7.94978H43.3646H51.8895L56.5378 12.5968L61.186 17.2438H78.8054H96.4247L96.9705 16.4114C97.7511 15.2216 98.5638 14.7024 99.8389 14.5796C102.025 14.3685 103.721 15.8091 103.905 18.0324C104.095 20.3319 102.494 22.1014 100.225 22.1014C98.8619 22.1014 97.7209 21.5129 97.0649 20.4718L96.6133 19.7548L78.4337 19.7462L60.2541 19.7373L55.6291 15.0903L51.0041 10.4433H42.9294H34.8548V13.0502V15.657H39.881H44.9073L49.5323 20.304L54.1573 24.951H61.5128H68.8682L69.2458 24.1561C70.247 22.0484 73.3546 21.6102 75.0721 23.3346C76.5369 24.805 76.6947 26.8885 75.4607 28.4635C74.8842 29.1993 73.4036 29.9261 72.4667 29.9331C71.442 29.9408 69.8571 29.0606 69.3537 28.2044L68.9071 27.4446H60.9948H53.0824L48.4283 22.7858L43.7742 18.127L37.9032 18.2145C31.3514 18.3122 30.6574 18.4273 27.516 19.9375C23.8249 21.712 21.1335 24.3866 19.3914 28.0113C18.0763 30.7478 17.6809 32.508 17.6769 35.646C17.6714 39.8276 18.8511 43.1943 21.4894 46.5272C23.0791 48.5354 25.0497 50.0871 27.516 51.2728C30.6335 52.7717 31.3518 52.8907 37.9032 52.9956L43.7742 53.0897L48.4012 48.4277L53.0283 43.7658H60.9677H68.9071L69.3537 43.0059C69.8571 42.1497 71.442 41.2695 72.4667 41.2772C73.4036 41.2843 74.8842 42.011 75.4607 42.7468C77.6036 45.4818 75.2107 49.5319 71.8308 48.8906C70.7097 48.678 69.6642 47.9354 69.2458 47.0543L68.8682 46.2593H61.5128H54.1573L49.5323 50.9063L44.9073 55.5533H39.881H34.8548V58.1602V60.767H42.9294H51.0041L55.6291 56.12L60.2541 51.473L78.4337 51.4642L96.6133 51.4555L97.0649 50.7385C98.1034 49.0903 100.621 48.5651 102.218 49.6638C103.459 50.5168 104.026 51.7092 103.902 53.2035C103.794 54.513 103.353 55.3053 102.284 56.106C101.808 56.4632 101.323 56.5734 100.226 56.5734C98.5916 56.5734 97.8803 56.1857 96.9705 54.7989L96.4247 53.9665H78.8054H61.186L56.5378 58.6135L51.8895 63.2605H43.3646H34.8394L34.9035 65.6974L34.9677 68.1342L46.371 68.1929L57.7743 68.2517L62.4013 63.6026L67.0284 58.9536L74.9337 58.9447L82.839 58.9361L83.2906 58.227C84.0902 56.9714 84.8514 56.5734 86.4519 56.5734C88.0558 56.5734 88.7764 56.9535 89.6697 58.2712C90.0477 58.8289 90.1777 59.3466 90.1777 60.2946C90.1777 62.5587 88.7098 64.0202 86.4232 64.0317C85.0264 64.039 83.6316 63.2272 83.1863 62.1477L82.897 61.4471H75.5273H68.1574L63.5324 66.0941L58.9074 70.7411H44.6273H30.3472L30.2381 70.2311ZM87.1919 61.3208C88.143 60.6521 87.6537 58.9536 86.5099 58.9536C85.3098 58.9536 84.7416 60.6387 85.7119 61.3208C85.9879 61.5148 86.3209 61.6738 86.4519 61.6738C86.5829 61.6738 86.916 61.5148 87.1919 61.3208ZM101.055 53.818C101.659 53.2697 101.587 52.2417 100.915 51.7994C100.248 51.3608 99.5556 51.5322 99.0852 52.253C98.2624 53.5136 99.9311 54.8392 101.055 53.818ZM73.1518 46.3125C73.2884 46.221 73.5276 45.9036 73.6829 45.6076C73.9243 45.1478 73.901 44.9824 73.5235 44.4741C72.9723 43.7322 72.4748 43.6243 71.7633 44.0922C71.0369 44.57 71.0098 45.6395 71.7118 46.133C72.2536 46.5141 72.7573 46.5769 73.1518 46.3125ZM32.6204 44.767C29.9078 44.0348 27.6206 42.12 26.3468 39.515C25.7599 38.3149 25.7095 38.006 25.7095 35.6052C25.7095 33.0969 25.7382 32.9407 26.4712 31.4745C28.3165 27.7834 32.4662 25.5817 36.3264 26.2454C40.1407 26.9014 43.1266 29.6037 44.1009 33.2817L44.3561 34.2451H66.5533H88.7504L88.997 33.7017C89.3691 32.8816 90.7253 31.9526 91.7519 31.8143C93.0281 31.6425 94.5469 32.2684 95.3187 33.2841C95.8464 33.9787 95.9359 34.3124 95.9359 35.5875C95.9359 36.7986 95.834 37.2219 95.3937 37.8418C94.7869 38.6958 93.3533 39.4463 92.3143 39.4538C91.2716 39.4613 89.6846 38.5498 89.0672 37.5886L88.5214 36.7386H66.4568H44.3922L44.1226 37.8153C42.8357 42.9511 37.6047 46.1126 32.6204 44.767ZM36.6156 38.183C38.6215 36.8857 38.3573 33.896 36.1403 32.8049C35.0101 32.2487 33.9353 32.4595 32.8607 33.448C32.083 34.1635 32.0322 34.2938 32.0322 35.5696C32.0322 36.7046 32.1252 37.0301 32.5967 37.5426C33.7239 38.7685 35.3177 39.0224 36.6156 38.183ZM93.0629 36.6123C94.0553 35.9146 93.4298 34.2451 92.1761 34.2451C91.8171 34.2451 90.8552 35.2354 90.8552 35.6052C90.8552 35.9749 91.8171 36.9653 92.1761 36.9653C92.388 36.9653 92.787 36.8064 93.0629 36.6123ZM73.5154 26.7486C74.3874 25.5715 73.0139 24.2284 71.7728 25.0447C71.034 25.5307 71.0055 26.5943 71.7179 27.0984C72.392 27.5756 72.989 27.4593 73.5154 26.7486ZM100.966 19.3844C101.903 18.7259 101.375 17.0171 100.234 17.0171C98.9768 17.0171 98.4518 18.5295 99.4327 19.327C100.05 19.8289 100.32 19.8391 100.966 19.3844ZM87.1519 12.0833C88.0247 11.4983 87.8939 10.1749 86.9193 9.72924C85.6819 9.16322 84.6459 10.8021 85.5837 11.8422C85.9662 12.2665 86.7084 12.3805 87.1519 12.0833Z" fill="#1C75BC"/>
</svg>
