<svg width="56" height="56" viewBox="0 0 56 56" fill="none" xmlns="http://www.w3.org/2000/svg">
<path d="M53.7813 27.541C53.7813 32.6401 52.2692 37.6246 49.4363 41.8643C46.6035 46.104 42.577 49.4085 37.8661 51.3598C33.1552 53.3111 27.9714 53.8217 22.9703 52.8269C17.9693 51.8321 13.3755 49.3767 9.76991 45.7711C6.16434 42.1655 3.70892 37.5718 2.71414 32.5707C1.71937 27.5696 2.22992 22.3859 4.18124 17.675C6.13256 12.9641 9.43701 8.93757 13.6767 6.10469C17.9164 3.27181 22.901 1.75977 28 1.75977C34.8361 1.76477 41.3907 4.48261 46.2246 9.31645C51.0584 14.1503 53.7763 20.7049 53.7813 27.541Z" fill="white"/>
<path d="M34.4883 12.041H21.5117C15.8697 12.041 12.5 15.4092 12.5 21.0527V34.0293C12.5 39.6729 15.8697 43.041 21.5117 43.041H34.4883C40.1303 43.041 43.5 39.6729 43.5 34.0293V21.0527C43.5 15.4092 40.1303 12.041 34.4883 12.041ZM24.28 34.051C24.28 34.6028 24.1164 35.1422 23.8098 35.6011C23.5032 36.0599 23.0675 36.4175 22.5577 36.6286C22.0479 36.8398 21.4869 36.8951 20.9457 36.7874C20.4045 36.6798 19.9074 36.414 19.5172 36.0238C19.127 35.6337 18.8613 35.1365 18.7536 34.5953C18.646 34.0541 18.7012 33.4931 18.9124 32.9833C19.1235 32.4735 19.4811 32.0378 19.94 31.7312C20.3988 31.4246 20.9382 31.261 21.49 31.261H22.73C23.1411 31.261 23.5353 31.4243 23.826 31.715C24.1167 32.0057 24.28 32.3999 24.28 32.811V34.051ZM24.28 22.271C24.28 22.6821 24.1167 23.0763 23.826 23.367C23.5353 23.6577 23.1411 23.821 22.73 23.821H21.49C20.9382 23.821 20.3988 23.6574 19.94 23.3508C19.4811 23.0442 19.1235 22.6085 18.9124 22.0987C18.7012 21.5889 18.646 21.0279 18.7536 20.4867C18.8613 19.9455 19.127 19.4484 19.5172 19.0582C19.9074 18.668 20.4045 18.4023 20.9457 18.2946C21.4869 18.187 22.0479 18.2422 22.5577 18.4534C23.0675 18.6646 23.5032 19.0222 23.8098 19.481C24.1164 19.9398 24.28 20.4792 24.28 21.031V22.271ZM31.3325 29.4847C31.3325 29.8547 31.1855 30.2095 30.9239 30.4711C30.6623 30.7327 30.3075 30.8797 29.9375 30.8797H26.0563C25.6863 30.8797 25.3315 30.7327 25.0699 30.4711C24.8083 30.2095 24.6613 29.8547 24.6613 29.4847V25.5973C24.6613 25.2273 24.8083 24.8725 25.0699 24.6109C25.3315 24.3493 25.6863 24.2023 26.0563 24.2023H29.9437C30.3137 24.2023 30.6685 24.3493 30.9301 24.6109C31.1917 24.8725 31.3387 25.2273 31.3387 25.5973L31.3325 29.4847ZM34.51 36.841C33.7707 36.839 33.0622 36.5444 32.5394 36.0216C32.0166 35.4988 31.722 34.7903 31.72 34.051V32.811C31.72 32.3999 31.8833 32.0057 32.174 31.715C32.4647 31.4243 32.8589 31.261 33.27 31.261H34.51C35.25 31.261 35.9596 31.555 36.4828 32.0782C37.0061 32.6014 37.3 33.3111 37.3 34.051C37.3 34.791 37.0061 35.5006 36.4828 36.0238C35.9596 36.5471 35.25 36.841 34.51 36.841ZM34.51 23.821H33.27C32.8589 23.821 32.4647 23.6577 32.174 23.367C31.8833 23.0763 31.72 22.6821 31.72 22.271V21.031C31.72 20.4792 31.8836 19.9398 32.1902 19.481C32.4968 19.0222 32.9325 18.6646 33.4423 18.4534C33.9521 18.2422 34.5131 18.187 35.0543 18.2946C35.5955 18.4023 36.0926 18.668 36.4828 19.0582C36.873 19.4484 37.1387 19.9455 37.2464 20.4867C37.354 21.0279 37.2988 21.5889 37.0876 22.0987C36.8765 22.6085 36.5189 23.0442 36.06 23.3508C35.6012 23.6574 35.0618 23.821 34.51 23.821Z" fill="#16B0E2"/>
</svg>
