<svg width="56" height="56" viewBox="0 0 56 56" fill="none" xmlns="http://www.w3.org/2000/svg">
<path d="M23.0892 1.02173L22.0834 7.79685C20.746 8.19782 19.4527 8.7335 18.2234 9.39579L12.7231 5.31379L5.7751 12.262L9.84924 17.7523C9.1853 18.9865 8.64887 20.2852 8.24827 21.6281L1.48096 22.63V32.4519L8.25809 33.4557C8.65906 34.7932 9.19482 36.0864 9.8571 37.3156L5.7751 42.816L12.7231 49.7659L18.2136 45.6918C19.4472 46.355 20.7452 46.8907 22.0874 47.2908L23.0892 54.0601H32.9111L33.9169 47.2831C35.2544 46.8821 36.5477 46.3462 37.7769 45.6839L43.2772 49.7659L50.2252 42.8179L46.1511 37.3274C46.815 36.0932 47.3515 34.7948 47.7521 33.4518L54.5194 32.45V22.6281L47.7422 21.6243C47.3413 20.2868 46.8055 18.9933 46.1432 17.7641L50.2252 12.264L43.2772 5.31379L37.7867 9.38811C36.5531 8.72497 35.2552 8.18903 33.913 7.78893L32.9111 1.02173H23.0892Z" fill="#0084FF"/>
<path d="M23.089 18.9175C21.3155 19.8225 19.8266 21.2002 18.7866 22.898C17.7467 24.5959 17.1962 26.5481 17.1958 28.5392C17.1958 31.4046 18.3341 34.1526 20.3603 36.1788C22.3864 38.2049 25.1345 39.3433 27.9999 39.3433C30.8654 39.3433 33.6134 38.2049 35.6396 36.1788C37.6658 34.1526 38.804 31.4046 38.804 28.5392C38.8015 26.5501 38.25 24.6004 37.2101 22.9048C36.1703 21.2092 34.6826 19.8333 32.9109 18.9292V28.5411L27.9999 31.4877L23.089 28.5411V18.9175Z" fill="white"/>
<path d="M33 34.009V55.009H23V34.009" fill="white"/>
</svg>
