<svg width="56" height="56" viewBox="0 0 56 56" fill="none" xmlns="http://www.w3.org/2000/svg">
<g clip-path="url(#clip0_1062_210)">
<path d="M21.2916 2.58297C21.1065 1.65176 21.7114 0.746821 22.6426 0.561719V0.561719C23.5738 0.376617 24.4787 0.981453 24.6638 1.91266V1.91266C24.8489 2.84386 24.2441 3.7488 23.3129 3.93391V3.93391C22.3817 4.11901 21.4767 3.51417 21.2916 2.58297V2.58297ZM31.3497 53.1727C31.1646 52.2415 31.7695 51.3365 32.7007 51.1514V51.1514C33.6319 50.9663 34.5368 51.5711 34.7219 52.5023V52.5023C34.907 53.4335 34.3022 54.3385 33.371 54.5236V54.5236C32.4398 54.7087 31.5348 54.1039 31.3497 53.1727V53.1727ZM1.02412 32.9086C0.83902 31.9774 1.44386 31.0724 2.37506 30.8873V30.8873C3.30626 30.7022 4.21121 31.3071 4.39631 32.2383V32.2383C4.58141 33.1695 3.97657 34.0744 3.04537 34.2595V34.2595C2.11417 34.4446 1.20922 33.8398 1.02412 32.9086V32.9086ZM51.6172 22.8505C51.4321 21.9193 52.037 21.0143 52.9682 20.8292V20.8292C53.8994 20.6441 54.8043 21.249 54.9894 22.1802V22.1802C55.1745 23.1114 54.5697 24.0163 53.6385 24.2014V24.2014C52.7073 24.3865 51.8023 23.7817 51.6172 22.8505V22.8505ZM41.3597 7.5175C40.5709 6.98972 40.3593 5.92241 40.8871 5.13359V5.13359C41.4149 4.34478 42.4822 4.13316 43.271 4.66094V4.66094C44.0598 5.18871 44.2714 6.25603 43.7437 7.04484V7.04484C43.2159 7.83366 42.1486 8.04528 41.3597 7.5175V7.5175ZM12.7168 50.6444C11.9289 50.1128 11.7211 49.0432 12.2527 48.2553V48.2553C12.7843 47.4674 13.8539 47.2597 14.6418 47.7913V47.7913C15.4296 48.3228 15.6374 49.3924 15.1058 50.1803V50.1803C14.5743 50.9682 13.5046 51.176 12.7168 50.6444V50.6444ZM5.60115 14.7156C4.81328 14.1841 4.60552 13.1144 5.13709 12.3266V12.3266C5.66866 11.5387 6.73828 11.3309 7.52615 11.8625V11.8625C8.31402 12.3941 8.52179 13.4637 7.99021 14.2516V14.2516C7.45864 15.0394 6.38902 15.2472 5.60115 14.7156V14.7156ZM48.496 43.2744C47.7072 42.7466 47.4956 41.6793 48.0233 40.8905V40.8905C48.5511 40.1017 49.6184 39.89 50.4072 40.4178V40.4178C51.1961 40.9456 51.4077 42.0129 50.8799 42.8017V42.8017C50.3521 43.5905 49.2848 43.8022 48.496 43.2744V43.2744ZM32.6938 3.94766C31.7626 3.76255 31.1578 2.85761 31.3429 1.92641V1.92641C31.528 0.995203 32.4329 0.390367 33.3641 0.575469V0.575469C34.2953 0.76057 34.9002 1.66551 34.7151 2.59672V2.59672C34.53 3.52792 33.625 4.13276 32.6938 3.94766V3.94766ZM22.6494 54.4995C21.7182 54.3144 21.1134 53.4095 21.2985 52.4783V52.4783C21.4836 51.5471 22.3885 50.9422 23.3197 51.1273V51.1273C24.2509 51.3124 24.8558 52.2174 24.6707 53.1486V53.1486C24.4856 54.0798 23.5806 54.6846 22.6494 54.4995V54.4995ZM2.39568 24.2014C1.46448 24.0163 0.859644 23.1114 1.04475 22.1802V22.1802C1.22985 21.249 2.13479 20.6441 3.066 20.8292V20.8292C3.9972 21.0143 4.60204 21.9193 4.41693 22.8505V22.8505C4.23183 23.7817 3.32689 24.3865 2.39568 24.2014V24.2014ZM52.9476 34.2492C52.0164 34.0641 51.4115 33.1592 51.5966 32.228V32.228C51.7817 31.2968 52.6867 30.6919 53.6179 30.877V30.877C54.5491 31.0621 55.1539 31.9671 54.9688 32.8983V32.8983C54.7837 33.8295 53.8788 34.4343 52.9476 34.2492V34.2492ZM12.2458 7.06547C11.7181 6.27665 11.9297 5.20934 12.7185 4.68156V4.68156C13.5073 4.15379 14.5746 4.3654 15.1024 5.15422V5.15422C15.6302 5.94304 15.4186 7.01035 14.6297 7.53813V7.53813C13.8409 8.0659 12.7736 7.85429 12.2458 7.06547V7.06547ZM40.9077 49.9414C40.3799 49.1526 40.5916 48.0853 41.3804 47.5575V47.5575C42.1692 47.0297 43.2365 47.2413 43.7643 48.0302V48.0302C44.2921 48.819 44.0804 49.8863 43.2916 50.4141V50.4141C42.5028 50.9418 41.4355 50.7302 40.9077 49.9414V49.9414ZM5.13709 42.8327C4.60931 42.0438 4.82093 40.9765 5.60975 40.4488V40.4488C6.39856 39.921 7.46588 40.1326 7.99365 40.9214V40.9214C8.52143 41.7102 8.30981 42.7775 7.521 43.3053V43.3053C6.73218 43.8331 5.66487 43.6215 5.13709 42.8327V42.8327ZM48.0027 13.9456C47.4711 13.1578 47.6789 12.0881 48.4668 11.5566V11.5566C49.2546 11.025 50.3243 11.2328 50.8558 12.0206V12.0206C51.3874 12.8085 51.1796 13.8781 50.3918 14.4097V14.4097C49.6039 14.9413 48.5343 14.7335 48.0027 13.9456V13.9456Z" fill="#FCB431"/>
<path d="M48.6248 27.5409C48.6225 24.4481 47.9236 21.3955 46.5799 18.6098C45.2361 15.8241 43.2821 13.3769 40.8629 11.45L29.4435 28.6065L26.556 26.5784L37.9685 9.39091C34.92 7.69621 31.4876 6.81208 27.9998 6.8231C23.9248 6.82315 19.9411 8.03031 16.5516 10.2922C13.162 12.5542 10.5184 15.7695 8.95448 19.5324C7.39053 23.2953 6.97631 27.4372 7.76408 31.4353C8.55186 35.4334 10.5063 39.1086 13.3808 41.997C16.2553 44.8854 19.921 46.8575 23.9153 47.6646C27.9095 48.4716 32.0534 48.0774 35.8238 46.5316C39.5942 44.9858 42.8222 42.3578 45.1005 38.9791C47.3787 35.6005 48.6051 31.6227 48.6248 27.5478V27.5409Z" fill="#FCB431"/>
</g>
<defs>
<clipPath id="clip0_1062_210">
<rect width="55" height="55" fill="white" transform="translate(0.5 0.0410156)"/>
</clipPath>
</defs>
</svg>
