<?xml version="1.0" encoding="UTF-8"?>
<svg xmlns="http://www.w3.org/2000/svg" xmlns:xlink="http://www.w3.org/1999/xlink" viewBox="0 0 1132 375.37">
  <defs>
    <style>
      .cls-1 {
        stroke: #231f20;
        stroke-miterlimit: 10;
      }

      .cls-1, .cls-2, .cls-3 {
        fill: none;
      }

      .cls-4 {
        fill: url(#linear-gradient-2);
      }

      .cls-5 {
        fill: #dbdbdb;
      }

      .cls-2 {
        isolation: isolate;
      }

      .cls-6 {
        fill: #96979b;
      }

      .cls-3 {
        mix-blend-mode: screen;
      }

      .cls-7 {
        fill: url(#linear-gradient);
      }

      .cls-8 {
        fill: #231f20;
      }

      .cls-9 {
        fill: #888;
      }
    </style>
    <linearGradient id="linear-gradient" x1="284" y1="179.87" x2="945.18" y2="190.14" gradientUnits="userSpaceOnUse">
      <stop offset="0" stop-color="#c4c4c4"/>
      <stop offset="1" stop-color="#f1f1f1"/>
    </linearGradient>
    <linearGradient id="linear-gradient-2" x1="193.32" y1="311.08" x2="622.79" y2="74.48" gradientUnits="userSpaceOnUse">
      <stop offset="0" stop-color="#4c4d4e"/>
      <stop offset=".46" stop-color="#848586"/>
      <stop offset="1" stop-color="#949596"/>
    </linearGradient>
  </defs>
  <g class="cls-2">
    <g id="Layer_1" data-name="Layer 1">
      <g>
        <path class="cls-5" d="m1132,64.88v1.51l-144.53,25.48-289.8,51.06c-17.33,3.05-34.99,3.66-52.5,1.8l-472.36-50.37-13.53-1.45h-.03L1.51,76.1l-1.51-.16v-.82L313.01.79c7.25-.79,14.55-1,21.83-.59l797.16,64.68Z"/>
        <path class="cls-7" d="m1132,98.67c0,.43-.3.79-.72.88l-430.31,90.4c-9.32,1.48-18.73,2.23-28.14,2.28-8.15.06-16.28-.4-24.38-1.41L14.61,112.02l-1.19-.14c.68.08,1.19.66,1.19,1.35v187.72c0,.68-.47,1.21-1.06,1.33h-.02c-.19.05-.4.03-.61-.02l-11.89-3.02c-.61-.14-1.03-.69-1.03-1.32V77.45c0-.8.71-1.43,1.51-1.35l157.73,16.81h.03l13.53,1.45,472.36,50.37c17.5,1.86,35.17,1.25,52.5-1.8l289.8-51.06,144.53-25.48v32.28Z"/>
        <path class="cls-9" d="m248.78,306.13l-235.23-3.84c.59-.13,1.06-.66,1.06-1.33V113.23l234.17,192.9Z"/>
        <path class="cls-4" d="m672.83,192.23l-53.82,182.2c-.19.64-.83,1.04-1.49.91l-368.74-69.22L14.61,113.23c0-.69-.51-1.27-1.19-1.35l1.19.14,633.84,78.79c8.1,1.01,16.23,1.48,24.38,1.41Z"/>
        <path class="cls-6" d="m1131.78,99.9l-185.5,173.23c-5.54,5.17-12.2,8.98-19.46,11.13l-306.8,90.91c-.58.17-1.12-.37-.94-.94l53.75-181.99c9.42-.05,18.82-.8,28.14-2.28l430.6-90.46c.24-.05.39.25.21.41Z"/>
        <line class="cls-1" x1="672.85" y1="192.18" x2="672.83" y2="192.23"/>
      </g>
      <g class="cls-3">
        <path class="cls-8" d="m635.6,210.87l3.25.49-1.42,9.42-3.25-.49.94-6.28-22.73-3.41-.94,6.28-3.25-.49,1.42-9.42,3.25.49.47-3.14-6.49-.98-2.36,15.7,6.49.98-.47,3.14-6.49-.98-.47,3.14,6.49.98-.47,3.14-6.49-.98-2.36,15.7,9.74,1.46-.94,6.28,3.25.49,1.42-9.42-9.74-1.46,1.42-9.42,3.25.49-.94,6.28,22.73,3.41.94-6.28,3.25.49-1.42,9.42-9.74-1.46-1.42,9.42,3.25.49.94-6.28,9.74,1.46,2.36-15.7-6.49-.98.47-3.14,6.49.98.47-3.14-6.49-.98.47-3.14,6.49.98,2.36-15.7-6.49-.98-.47,3.14Zm-20.43,3.35l3.25.49-.94,6.28-3.25-.49.94-6.28Zm3.19,22.96l-6.49-.98,1.89-12.56,3.25.49-.47,3.14,3.25.49-1.42,9.42Zm3.3-21.98l3.25.49-1.42,9.42-3.25-.49,1.42-9.42Zm6.44,23.45l-6.49-.98,1.42-9.42,3.25.49.47-3.14,3.25.49-1.89,12.56Zm2.36-15.7l-3.25-.49.94-6.28,3.25.49-.94,6.28Z"/>
        <polygon class="cls-8" points="640.73 198.8 640.26 201.94 637.01 201.45 637.48 198.31 634.24 197.82 633.76 200.96 630.52 200.48 630.04 203.62 620.3 202.15 620.77 199.01 617.53 198.53 618 195.39 614.75 194.9 614.28 198.04 611.03 197.55 611.51 194.41 608.26 193.92 607.32 200.2 617.06 201.67 616.11 207.95 619.36 208.44 619.83 205.3 623.08 205.78 622.61 208.92 625.85 209.41 626.33 206.27 629.57 206.76 629.1 209.9 632.35 210.39 633.29 204.1 643.03 205.57 643.98 199.29 640.73 198.8"/>
      </g>
      <g class="cls-3">
        <path class="cls-8" d="m635.6,210.87l3.25.49-1.42,9.42-3.25-.49.94-6.28-22.73-3.41-.94,6.28-3.25-.49,1.42-9.42,3.25.49.47-3.14-6.49-.98-2.36,15.7,6.49.98-.47,3.14-6.49-.98-.47,3.14,6.49.98-.47,3.14-6.49-.98-2.36,15.7,9.74,1.46-.94,6.28,3.25.49,1.42-9.42-9.74-1.46,1.42-9.42,3.25.49-.94,6.28,22.73,3.41.94-6.28,3.25.49-1.42,9.42-9.74-1.46-1.42,9.42,3.25.49.94-6.28,9.74,1.46,2.36-15.7-6.49-.98.47-3.14,6.49.98.47-3.14-6.49-.98.47-3.14,6.49.98,2.36-15.7-6.49-.98-.47,3.14Zm-20.43,3.35l3.25.49-.94,6.28-3.25-.49.94-6.28Zm3.19,22.96l-6.49-.98,1.89-12.56,3.25.49-.47,3.14,3.25.49-1.42,9.42Zm3.3-21.98l3.25.49-1.42,9.42-3.25-.49,1.42-9.42Zm6.44,23.45l-6.49-.98,1.42-9.42,3.25.49.47-3.14,3.25.49-1.89,12.56Zm2.36-15.7l-3.25-.49.94-6.28,3.25.49-.94,6.28Z"/>
        <polygon class="cls-8" points="640.73 198.8 640.26 201.94 637.01 201.45 637.48 198.31 634.24 197.82 633.76 200.96 630.52 200.48 630.04 203.62 620.3 202.15 620.77 199.01 617.53 198.53 618 195.39 614.75 194.9 614.28 198.04 611.03 197.55 611.51 194.41 608.26 193.92 607.32 200.2 617.06 201.67 616.11 207.95 619.36 208.44 619.83 205.3 623.08 205.78 622.61 208.92 625.85 209.41 626.33 206.27 629.57 206.76 629.1 209.9 632.35 210.39 633.29 204.1 643.03 205.57 643.98 199.29 640.73 198.8"/>
      </g>
    </g>
  </g>
</svg>