<svg width="121" height="61" viewBox="0 0 121 61" fill="none" xmlns="http://www.w3.org/2000/svg">
<path d="M108.204 53.9371V58.7353C108.204 59.2033 108.019 59.6522 107.688 59.9831C107.357 60.3141 106.908 60.5 106.44 60.5H96.4349C95.9694 60.4962 95.5243 60.3085 95.1965 59.978C94.8687 59.6475 94.6848 59.2008 94.6848 58.7353V53.9371H108.204ZM26.3136 53.9371V58.7353C26.3136 59.2008 26.1297 59.6475 25.8019 59.978C25.4741 60.3085 25.029 60.4962 24.5635 60.5H14.5586C14.0906 60.5 13.6418 60.3141 13.3108 59.9831C12.9799 59.6522 12.7939 59.2033 12.7939 58.7353V53.9371H26.3136Z" fill="#419BE9"/>
<path d="M109.445 5.77952V41.3944H60.4998V5.77952C60.5074 4.38166 61.0661 3.04325 62.0546 2.0548C63.043 1.06635 64.3814 0.50766 65.7793 0.5H104.165C105.565 0.5 106.908 1.05623 107.898 2.04633C108.888 3.03644 109.445 4.3793 109.445 5.77952Z" fill="#419BE9"/>
<path d="M60.5 5.77952V41.3944H11.5259V5.77952C11.522 4.38819 12.069 3.05189 13.0473 2.06262C14.0257 1.07335 15.3558 0.511557 16.7471 0.5H55.2059C56.6075 0.499995 57.9518 1.05576 58.9443 2.04545C59.9367 3.03513 60.4961 4.37796 60.5 5.77952Z" fill="#16A897"/>
<path d="M60.5 5.77952V41.3944H11.5259V5.77952C11.522 4.38819 12.069 3.05189 13.0473 2.06262C14.0257 1.07335 15.3558 0.511557 16.7471 0.5H55.2059C56.6075 0.499995 57.9518 1.05576 58.9443 2.04545C59.9367 3.03513 60.4961 4.37796 60.5 5.77952Z" fill="#16A897"/>
<path d="M60.5 5.77952V41.3944H11.5259V5.77952C11.522 4.38819 12.069 3.05189 13.0473 2.06262C14.0257 1.07335 15.3558 0.511557 16.7471 0.5H55.2059C56.6075 0.499995 57.9518 1.05576 58.9443 2.04545C59.9367 3.03513 60.4961 4.37796 60.5 5.77952Z" fill="#419BE9"/>
<path d="M62.0897 2.00189V33.329L60.5 35.0937L58.8958 33.329V1.9873C59.4076 2.47656 59.8139 3.06534 60.0898 3.71744C60.3657 4.36954 60.5053 5.07118 60.5 5.77922C60.4974 5.07505 60.6368 4.37759 60.9099 3.72855C61.1831 3.07952 61.5843 2.49225 62.0897 2.00189Z" fill="#3A8EC1"/>
<path d="M120.296 23.0185V53.208C120.296 53.8423 120.044 54.4507 119.595 54.8992C119.147 55.3478 118.538 55.5998 117.904 55.5998H106.091V23.0185C106.089 22.7038 106.149 22.3919 106.269 22.1009C106.388 21.8098 106.564 21.5454 106.787 21.3229C107.009 21.1004 107.274 20.9243 107.565 20.8048C107.856 20.6852 108.168 20.6247 108.482 20.6266H117.904C118.538 20.6266 119.147 20.8786 119.595 21.3272C120.044 21.7757 120.296 22.3841 120.296 23.0185ZM0.704346 23.0185V53.208C0.704346 53.8423 0.956341 54.4507 1.4049 54.8992C1.85345 55.3478 2.46182 55.5998 3.09617 55.5998H14.9095V23.0185C14.9114 22.7038 14.8508 22.3919 14.7313 22.1009C14.6118 21.8098 14.4357 21.5454 14.2132 21.3229C13.9907 21.1004 13.7263 20.9243 13.4352 20.8048C13.1442 20.6852 12.8323 20.6247 12.5176 20.6266H3.09617C2.46182 20.6266 1.85345 20.8786 1.4049 21.3272C0.956341 21.7757 0.704346 22.3841 0.704346 23.0185Z" fill="#EEEFEE"/>
<path d="M112.522 41.3945H9.93628V55.5996H112.522V41.3945Z" fill="#EEEFEE"/>
<path d="M60.5 35.0945V44.0347C60.4942 44.4734 60.3252 44.8943 60.0259 45.2152C59.7266 45.5361 59.3184 45.734 58.8811 45.7702H13.276C12.8118 45.7702 12.3667 45.5858 12.0385 45.2576C11.7103 44.9294 11.5259 44.4842 11.5259 44.0201V35.0945C11.5259 34.6303 11.7103 34.1852 12.0385 33.857C12.3667 33.5288 12.8118 33.3444 13.276 33.3444H58.8665C59.3114 33.3706 59.7292 33.5669 60.0333 33.8927C60.3374 34.2185 60.5045 34.6488 60.5 35.0945Z" fill="#69B0EE"/>
<path d="M109.445 35.0932V44.0334C109.441 44.4989 109.253 44.944 108.923 45.2718C108.592 45.5996 108.146 45.7835 107.68 45.7835H62.0896C61.6525 45.7467 61.2455 45.5457 60.9506 45.221C60.6557 44.8963 60.4946 44.472 60.4999 44.0334V35.0932C60.5095 34.6662 60.6775 34.2581 60.9714 33.9481C61.2652 33.6381 61.6637 33.4485 62.0896 33.416H107.68C108.134 33.4118 108.573 33.5845 108.902 33.8975C109.231 34.2105 109.426 34.6393 109.445 35.0932Z" fill="#69B0EE"/>
<path d="M27.35 7.00454C27.35 6.60181 27.0236 6.27533 26.6208 6.27533C26.2181 6.27533 25.8916 6.60181 25.8916 7.00454V12.0945C25.8916 12.4972 26.2181 12.8237 26.6208 12.8237C27.0236 12.8237 27.35 12.4972 27.35 12.0945V7.00454Z" fill="#3A8EC1"/>
<path d="M29.1587 8.81311H24.0688C23.6661 8.81311 23.3396 9.13959 23.3396 9.54233C23.3396 9.94506 23.6661 10.2715 24.0688 10.2715H29.1587C29.5615 10.2715 29.8879 9.94506 29.8879 9.54233C29.8879 9.13959 29.5615 8.81311 29.1587 8.81311Z" fill="#3A8EC1"/>
<path d="M46.1196 7.00454C46.1196 6.60181 45.7931 6.27533 45.3903 6.27533C44.9876 6.27533 44.6611 6.60181 44.6611 7.00454V12.0945C44.6611 12.4972 44.9876 12.8237 45.3903 12.8237C45.7931 12.8237 46.1196 12.4972 46.1196 12.0945V7.00454Z" fill="#3A8EC1"/>
<path d="M47.9427 8.81311H42.8528C42.45 8.81311 42.1235 9.13959 42.1235 9.54233C42.1235 9.94506 42.45 10.2715 42.8528 10.2715H47.9427C48.3454 10.2715 48.6719 9.94506 48.6719 9.54233C48.6719 9.13959 48.3454 8.81311 47.9427 8.81311Z" fill="#3A8EC1"/>
<path d="M27.35 20.9321C27.35 20.5294 27.0236 20.2029 26.6208 20.2029C26.2181 20.2029 25.8916 20.5294 25.8916 20.9321V26.022C25.8916 26.4248 26.2181 26.7512 26.6208 26.7512C27.0236 26.7512 27.35 26.4248 27.35 26.022V20.9321Z" fill="#3A8EC1"/>
<path d="M29.1587 22.7552H24.0688C23.6661 22.7552 23.3396 23.0817 23.3396 23.4845C23.3396 23.8872 23.6661 24.2137 24.0688 24.2137H29.1587C29.5615 24.2137 29.8879 23.8872 29.8879 23.4845C29.8879 23.0817 29.5615 22.7552 29.1587 22.7552Z" fill="#3A8EC1"/>
<path d="M46.1196 20.9321C46.1196 20.5294 45.7931 20.2029 45.3903 20.2029C44.9876 20.2029 44.6611 20.5294 44.6611 20.9321V26.022C44.6611 26.4248 44.9876 26.7512 45.3903 26.7512C45.7931 26.7512 46.1196 26.4248 46.1196 26.022V20.9321Z" fill="#3A8EC1"/>
<path d="M47.9427 22.7552H42.8528C42.45 22.7552 42.1235 23.0817 42.1235 23.4845C42.1235 23.8872 42.45 24.2137 42.8528 24.2137H47.9427C48.3454 24.2137 48.6719 23.8872 48.6719 23.4845C48.6719 23.0817 48.3454 22.7552 47.9427 22.7552Z" fill="#3A8EC1"/>
<path d="M76.3093 7.00454C76.3093 6.60181 75.9828 6.27533 75.58 6.27533C75.1773 6.27533 74.8508 6.60181 74.8508 7.00454V12.0945C74.8508 12.4972 75.1773 12.8237 75.58 12.8237C75.9828 12.8237 76.3093 12.4972 76.3093 12.0945V7.00454Z" fill="#3A8EC1"/>
<path d="M78.1177 8.81311H73.0278C72.6251 8.81311 72.2986 9.13959 72.2986 9.54233C72.2986 9.94506 72.6251 10.2715 73.0278 10.2715H78.1177C78.5205 10.2715 78.8469 9.94506 78.8469 9.54233C78.8469 9.13959 78.5205 8.81311 78.1177 8.81311Z" fill="#3A8EC1"/>
<path d="M95.0788 7.00454C95.0788 6.60181 94.7523 6.27533 94.3496 6.27533C93.9468 6.27533 93.6204 6.60181 93.6204 7.00454V12.0945C93.6204 12.4972 93.9468 12.8237 94.3496 12.8237C94.7523 12.8237 95.0788 12.4972 95.0788 12.0945V7.00454Z" fill="#3A8EC1"/>
<path d="M96.9029 8.81311H91.813C91.4102 8.81311 91.0837 9.13959 91.0837 9.54233C91.0837 9.94506 91.4102 10.2715 91.813 10.2715H96.9029C97.3056 10.2715 97.6321 9.94506 97.6321 9.54233C97.6321 9.13959 97.3056 8.81311 96.9029 8.81311Z" fill="#3A8EC1"/>
<path d="M76.3093 20.9321C76.3093 20.5294 75.9828 20.2029 75.58 20.2029C75.1773 20.2029 74.8508 20.5294 74.8508 20.9321V26.022C74.8508 26.4248 75.1773 26.7512 75.58 26.7512C75.9828 26.7512 76.3093 26.4248 76.3093 26.022V20.9321Z" fill="#3A8EC1"/>
<path d="M78.1177 22.7552H73.0278C72.6251 22.7552 72.2986 23.0817 72.2986 23.4845C72.2986 23.8872 72.6251 24.2137 73.0278 24.2137H78.1177C78.5205 24.2137 78.8469 23.8872 78.8469 23.4845C78.8469 23.0817 78.5205 22.7552 78.1177 22.7552Z" fill="#3A8EC1"/>
<path d="M95.0788 20.9321C95.0788 20.5294 94.7523 20.2029 94.3496 20.2029C93.9468 20.2029 93.6204 20.5294 93.6204 20.9321V26.022C93.6204 26.4248 93.9468 26.7512 94.3496 26.7512C94.7523 26.7512 95.0788 26.4248 95.0788 26.022V20.9321Z" fill="#3A8EC1"/>
<path d="M96.9029 22.7552H91.813C91.4102 22.7552 91.0837 23.0817 91.0837 23.4845C91.0837 23.8872 91.4102 24.2137 91.813 24.2137H96.9029C97.3056 24.2137 97.6321 23.8872 97.6321 23.4845C97.6321 23.0817 97.3056 22.7552 96.9029 22.7552Z" fill="#3A8EC1"/>
</svg>
