<?xml version="1.0" encoding="UTF-8"?>
<svg id="Layer_1" data-name="Layer 1" xmlns="http://www.w3.org/2000/svg" viewBox="0 0 830.31 1044.51">
  <defs>
    <style>
      .cls-1 {
        fill: #fff;
      }

      .cls-2 {
        fill: #92c12d;
      }
    </style>
  </defs>
  <rect class="cls-1" x="497.99" width="58.3" height="184.61" rx="9.33" ry="9.33"/>
  <ellipse class="cls-2" cx="415.16" cy="641.6" rx="415.16" ry="402.91"/>
  <rect class="cls-1" x="268.49" width="58.3" height="184.61" rx="9.33" ry="9.33"/>
  <path class="cls-1" d="m157.84,172.56h499.66c34.29,58.78,78.68,580.09-225.33,504.56C54.97,770.19,118.98,230.86,157.84,172.56Z"/>
  <path class="cls-2" d="m443.38,270.49c-.29.44-12.59,12.53-12.59,12.53l-78.69,162.11,70.05-22.09-54.93,138.22,22.21-22.21,108.56-185.98-78.81,23.25,24.2-105.81Z"/>
  <path class="cls-2" d="m432.34,283.02c-1.16,1.75-100.91,184.32-100.91,184.32l70.05-22.09-32.72,116,110.82-186.65-81.08,23.91,33.83-115.49Z"/>
  <rect class="cls-1" x="359.3" y="673.03" width="124.91" height="44.09" rx="4.31" ry="4.31"/>
  <rect class="cls-1" x="365.59" y="700.79" width="113.71" height="155.94" rx="11.57" ry="11.57"/>
</svg>