<svg width="56" height="56" viewBox="0 0 56 56" fill="none" xmlns="http://www.w3.org/2000/svg">
<path d="M28 35.564C35.5584 35.564 41.6856 29.4368 41.6856 21.8784C41.6856 14.3201 35.5584 8.19287 28 8.19287C20.4417 8.19287 14.3145 14.3201 14.3145 21.8784C14.3145 29.4368 20.4417 35.564 28 35.564Z" fill="white"/>
<path d="M28.0009 3.18384C17.6322 3.18384 9.2251 11.7018 9.2251 22.2076C9.2251 36.3528 24.2397 51.8981 28.0009 51.8981C31.7621 51.8981 46.7752 36.3528 46.7752 22.2076C46.7752 11.7018 38.3708 3.18384 28.0009 3.18384ZM28.0009 33.8137C21.7081 33.8137 16.6088 28.6453 16.6088 22.2704C16.6044 19.845 17.3609 17.4793 18.7719 15.5066C18.9177 17.9474 20.9126 19.8834 23.3597 19.8834C25.9003 19.8834 27.9597 17.7977 27.9597 15.2222C27.9597 13.3828 26.906 11.7976 25.3794 11.0382C26.2382 10.8328 27.1182 10.7288 28.0013 10.7283C34.2929 10.7279 39.393 15.8955 39.393 22.2704C39.393 28.6453 34.2929 33.8137 28.0009 33.8137Z" fill="#0695ED"/>
</svg>
