<svg width="80" height="73" viewBox="0 0 80 73" fill="none" xmlns="http://www.w3.org/2000/svg">
<g clip-path="url(#clip0_1062_119)">
<path d="M21.7659 45.4766C33.757 45.4766 43.4778 36.3193 43.4778 25.0233C43.4778 13.7273 33.757 4.57007 21.7659 4.57007C9.77471 4.57007 0.0539551 13.7273 0.0539551 25.0233C0.0539551 36.3193 9.77471 45.4766 21.7659 45.4766Z" fill="#4285F4"/>
<path d="M57.9526 45.4762C63.9482 45.4762 68.8086 40.8976 68.8086 35.2496C68.8086 29.6016 63.9482 25.0229 57.9526 25.0229C51.9571 25.0229 47.0967 29.6016 47.0967 35.2496C47.0967 40.8976 51.9571 45.4762 57.9526 45.4762Z" fill="#EA4335"/>
<path d="M57.9529 72.7477C64.9477 72.7477 70.6182 67.406 70.6182 60.8167C70.6182 54.2273 64.9477 48.8856 57.9529 48.8856C50.958 48.8856 45.2876 54.2273 45.2876 60.8167C45.2876 67.406 50.958 72.7477 57.9529 72.7477Z" fill="#FBBC05"/>
<path d="M74.2368 28.4324C77.2346 28.4324 79.6648 26.1431 79.6648 23.3191C79.6648 20.4951 77.2346 18.2058 74.2368 18.2058C71.239 18.2058 68.8088 20.4951 68.8088 23.3191C68.8088 26.1431 71.239 28.4324 74.2368 28.4324Z" fill="#34A853"/>
</g>
<defs>
<clipPath id="clip0_1062_119">
<rect width="79.6104" height="72.373" fill="white" transform="translate(0.0539551 0.544678)"/>
</clipPath>
</defs>
</svg>
