<svg width="56" height="59" viewBox="0 0 56 59" fill="none" xmlns="http://www.w3.org/2000/svg">
<path fill-rule="evenodd" clip-rule="evenodd" d="M26.9365 1.07804C27.2569 0.970674 27.5755 0.814022 27.924 0.850984C28.1897 0.884426 28.5083 0.77882 28.7442 0.92843C29.3879 1.07246 29.9716 1.41106 30.4163 1.89826C32.3419 3.82734 34.268 5.75525 36.1947 7.68199C36.4036 7.87356 36.5983 8.08004 36.7773 8.2998C34.6159 10.5052 32.414 12.6719 30.2367 14.8633C29.5327 15.5673 28.8287 16.2925 28.1017 16.9877C27.1442 17.8889 26.2395 18.8429 25.3032 19.7652C21.0636 24.0176 16.8229 28.2683 12.581 32.5172C10.6044 34.5202 8.60317 36.5021 6.61776 38.5016C4.47218 40.6402 2.34068 42.7928 0.188062 44.9243C0.188062 43.4634 0.188062 42.0025 0.188062 40.5416V39.6615C0.188062 36.7421 0.188062 33.8215 0.188062 30.8997C0.188062 30.0196 0.175736 29.1396 0.205658 28.2595C0.196858 28.0835 0.330629 27.9409 0.323589 27.7614C0.446797 27.5519 0.559444 27.3337 0.675612 27.1225C0.997401 26.7297 1.34491 26.3586 1.71584 26.0118C9.7361 17.9752 17.7581 9.93729 25.7819 1.89826C26.0947 1.53541 26.4909 1.25394 26.9365 1.07804Z" fill="#F72A22"/>
<path fill-rule="evenodd" clip-rule="evenodd" d="M30.2286 14.8578C32.4058 12.6664 34.6077 10.4997 36.7692 8.29431C42.6515 14.2118 48.5467 20.1176 54.4548 26.0116C54.9828 26.559 55.6341 27.0677 55.8418 27.8334C56.0442 28.335 55.9808 28.8894 55.9914 29.4175C55.9914 38.0643 55.9914 46.7112 55.9914 55.358C56.1216 57.0636 54.4935 58.6583 52.795 58.5262H43.5931C43.579 54.3935 43.5931 50.2625 43.5843 46.1298C43.5914 41.5863 43.5914 37.044 43.5843 32.5029C39.7543 28.68 35.9278 24.8529 32.1049 21.0217C30.7707 19.6752 29.4154 18.3481 28.0918 16.991C28.8187 16.287 29.5157 15.5636 30.2286 14.8578Z" fill="#4285F4"/>
<path fill-rule="evenodd" clip-rule="evenodd" d="M6.60898 38.4911C8.59439 36.4969 10.5956 34.515 12.5723 32.5067C12.5899 37.0425 12.5723 41.5801 12.5828 46.1159C12.574 50.2487 12.5828 54.3885 12.5828 58.5124H2.90218C1.55393 58.3364 0.365855 57.2064 0.195123 55.8476C0.184563 52.2024 0.195123 48.5554 0.195123 44.9102C2.3319 42.7823 4.4634 40.6296 6.60898 38.4911Z" fill="#FDBC01"/>
<path fill-rule="evenodd" clip-rule="evenodd" d="M12.5827 46.1211C22.9169 46.1211 33.2505 46.1211 43.5836 46.1211C43.5942 50.2538 43.5836 54.3936 43.5924 58.5176H12.5774C12.5862 54.3848 12.5739 50.2538 12.5827 46.1211Z" fill="#00AC47"/>
</svg>
