<?xml version="1.0" encoding="UTF-8"?>
<svg id="Layer_1" data-name="Layer 1" xmlns="http://www.w3.org/2000/svg" viewBox="0 0 1173.16 239.6">
  <defs>
    <style>
      .cls-1 {
        fill: #2b3990;
      }

      .cls-2 {
        fill: #1c75bc;
      }
    </style>
  </defs>
  <g>
    <path class="cls-1" d="m46.89,63.63H0l75.49,146.84c9.2,17.89,27.62,29.14,47.74,29.14h59.7v-29.96c0-12.56-10.18-22.73-22.73-22.73h-21.33c-8.36,0-16.03-4.64-19.92-12.05l-51.92-99.05c-3.92-7.49-11.68-12.18-20.13-12.18Z"/>
    <path class="cls-1" d="m318.21,29.14c-9.2-17.89-27.62-29.14-47.74-29.14h-59.7v29.96c0,12.56,10.18,22.73,22.73,22.73h21.33c8.36,0,16.03,4.64,19.92,12.05l51.92,99.05c3.92,7.49,11.68,12.18,20.13,12.18h46.89L318.21,29.14Z"/>
    <path class="cls-2" d="m321.12,182.93v33.94c0,12.55-10.18,22.73-22.73,22.73h-32.36c-22.34,0-42.83-12.45-53.12-32.28l-27.61-53.25,18.53-11.05h-87.5v-46.44h39.16l-16.07-30.99c-3.81-7.33-11.34-12-19.6-12.12l-23.88-.4c-12.41-.21-22.36-10.32-22.36-22.73V0h62.94C156.49,0,174.84,11.07,184.18,28.76l30.37,57.61-21.04,10.21h84.87v46.44h-33.97l14.71,27.91c3.88,7.39,11.54,12,19.88,12h42.11Z"/>
  </g>
  <g>
    <g>
      <path class="cls-2" d="m464.88,10.24c3.07,0,4.51,1.43,4.51,4.51v134.37c0,3.07-1.43,4.51-4.51,4.51h-22.12c-3.07,0-4.71-1.43-4.71-4.51V14.75c0-3.07,1.64-4.51,4.71-4.51h22.12Z"/>
      <path class="cls-2" d="m602.94,41.17c36.87,0,48.75,11.88,48.75,41.58v66.37c0,3.07-1.43,4.51-4.51,4.51h-20.07c-3.07,0-4.51-1.43-4.51-4.51v-59.4c0-17.21-3.48-22.53-21.1-22.53h-54.49c-17.61,0-22.33,5.33-22.33,22.53v59.4c0,3.07-1.43,4.51-4.51,4.51h-20.07c-3.07,0-4.71-1.43-4.71-4.51v-66.37c0-29.7,11.88-41.58,48.75-41.58h58.79Z"/>
      <path class="cls-2" d="m801,41.17V4.51c0-3.07,1.43-4.51,4.51-4.51h20.07c3.07,0,4.51,1.43,4.51,4.51v107.74c0,29.7-11.88,41.38-48.75,41.38h-57.35c-36.87,0-48.75-11.68-48.75-41.38v-29.5c0-29.7,11.88-41.58,48.75-41.58h77.02Zm0,65.34v-40.76h-74.15c-17.62,0-22.33,5.33-22.33,22.53v18.23c0,17.21,4.71,22.53,22.33,22.53h51.62c17.82,0,22.53-5.33,22.53-22.53Z"/>
      <path class="cls-2" d="m879.64,41.17c3.07,0,4.51,1.64,4.51,4.71v59.2c0,17.21,3.28,22.53,21.1,22.53h52.64c17.82,0,22.53-5.33,22.53-22.53v-59.2c0-3.07,1.43-4.71,4.51-4.71h20.07c3.07,0,4.51,1.64,4.51,4.71v66.37c0,29.7-11.88,41.38-48.75,41.38h-57.15c-36.87,0-48.75-11.68-48.75-41.38V45.88c0-3.07,1.64-4.71,4.71-4.71h20.07Z"/>
      <path class="cls-2" d="m1164.56,41.17c2.46,0,3.69,1.23,3.69,3.69v16.39c0,2.46-1.23,3.69-3.69,3.69h-92.38c-8.4,0-11.27,3.28-11.27,9.22v3.07c0,5.53,2.87,8.81,11.27,8.81h69.03c22.94,0,31.95,9.83,31.95,27.45v11.47c0,18.02-7.99,28.68-32.16,28.68h-104.87c-2.46,0-3.69-1.23-3.69-3.69v-16.39c0-2.46,1.23-3.69,3.69-3.69h97.09c8.4,0,11.47-2.87,11.47-9.83v-5.53c0-5.33-3.07-8.6-11.47-8.6h-68.82c-22.94,0-31.95-9.63-31.95-27.65v-9.01c0-17,7.99-28.06,32.16-28.06h99.96Z"/>
    </g>
    <g>
      <path class="cls-1" d="m490.51,179.16c.95,0,1.46.41,1.46,1.28v5.7c0,.87-.51,1.34-1.46,1.34h-19.97v31.13c0,.87-.45,1.28-1.4,1.28h-6.93c-.95,0-1.4-.41-1.4-1.28v-31.13h-19.97c-.95,0-1.46-.47-1.46-1.34v-5.7c0-.87.51-1.28,1.46-1.28h49.66Z"/>
      <path class="cls-1" d="m550.04,179.16c.95,0,1.46.41,1.46,1.28v5.53c0,.87-.51,1.28-1.46,1.28h-27.79c-6.61,0-8.46,1.8-8.46,7.91v.58h35.93c.95,0,1.4.41,1.4,1.28v4.6c0,.87-.45,1.28-1.4,1.28h-35.93v.99c0,6.11,1.84,7.91,8.46,7.91h27.79c.95,0,1.46.41,1.46,1.28v5.53c0,.87-.51,1.28-1.46,1.28h-27.98c-12.84,0-17.8-4.19-17.8-15.36v-10.01c0-11.17,4.96-15.36,17.8-15.36h27.98Z"/>
      <path class="cls-1" d="m613.19,179.16c.95,0,1.4.41,1.4,1.28v5.7c0,.87-.44,1.34-1.4,1.34h-28.3c-6.55,0-8.46,1.75-8.46,7.91v8.26c0,6.17,1.91,7.97,8.46,7.97h28.3c.95,0,1.4.41,1.4,1.28v5.7c0,.87-.44,1.28-1.4,1.28h-28.68c-12.84,0-17.8-4.19-17.8-15.36v-10.01c0-11.17,4.96-15.36,17.8-15.36h28.68Z"/>
      <path class="cls-1" d="m638.12,179.16c.95,0,1.4.41,1.4,1.28v15.13h29.76v-15.13c0-.87.45-1.28,1.4-1.28h6.87c.95,0,1.46.41,1.46,1.28v38.17c0,.87-.51,1.28-1.46,1.28h-6.87c-.95,0-1.4-.41-1.4-1.28v-15.48h-29.76v15.48c0,.87-.45,1.28-1.4,1.28h-6.87c-.95,0-1.46-.41-1.46-1.28v-38.17c0-.87.51-1.28,1.46-1.28h6.87Z"/>
      <path class="cls-1" d="m707.13,179.16c4.07,0,4.96.46,7.38,3.43l23.65,28.4c.19.29.44.41.83.41h.57c.32,0,.51-.17.51-.58v-30.37c0-.87.45-1.28,1.4-1.28h6.68c.95,0,1.4.41,1.4,1.28v33.4c0,4.71-1.84,6.05-5.72,6.05h-5.47c-3.88,0-4.83-.35-7.38-3.43l-23.72-28.4c-.26-.29-.45-.41-.83-.41h-.57c-.38,0-.51.17-.51.58v30.37c0,.87-.44,1.28-1.4,1.28h-6.68c-.95,0-1.46-.41-1.46-1.28v-33.4c0-4.71,1.84-6.05,5.72-6.05h5.59Z"/>
      <path class="cls-1" d="m811.67,179.16c.95,0,1.46.41,1.46,1.28v5.53c0,.87-.51,1.28-1.46,1.28h-27.79c-6.61,0-8.46,1.8-8.46,7.91v.58h35.93c.95,0,1.4.41,1.4,1.28v4.6c0,.87-.44,1.28-1.4,1.28h-35.93v.99c0,6.11,1.84,7.91,8.46,7.91h27.79c.95,0,1.46.41,1.46,1.28v5.53c0,.87-.51,1.28-1.46,1.28h-27.98c-12.84,0-17.8-4.19-17.8-15.36v-10.01c0-11.17,4.96-15.36,17.8-15.36h27.98Z"/>
      <path class="cls-1" d="m877.24,179.16c.95,0,1.46.41,1.46,1.28v5.7c0,.87-.51,1.34-1.46,1.34h-19.97v31.13c0,.87-.45,1.28-1.4,1.28h-6.93c-.95,0-1.4-.41-1.4-1.28v-31.13h-19.97c-.95,0-1.46-.47-1.46-1.34v-5.7c0-.87.51-1.28,1.46-1.28h49.66Z"/>
      <path class="cls-1" d="m928.82,179.16c9.73,0,13.67,4.13,13.67,11.99v3.32c0,6.63-2.8,10.53-9.47,11.64l10.87,12.33c.38.41.32,1.46-.83,1.46h-8.2c-1.08,0-1.4-.23-1.78-.76l-10.05-12.1h-20.54v11.58c0,.87-.44,1.28-1.4,1.28h-6.87c-.95,0-1.46-.41-1.46-1.28v-37.7c0-1.16.64-1.74,1.91-1.74h34.15Zm-26.33,20.77h24.35c4.32,0,5.91-1.69,5.91-5.18v-2.44c0-3.49-1.59-5.18-5.91-5.18h-23.53c-.57,0-.83.23-.83.7v12.1Z"/>
      <path class="cls-1" d="m994.52,179.16c12.91,0,17.8,4.19,17.8,15.36v10.01c0,11.17-4.9,15.36-17.8,15.36h-19.65c-12.84,0-17.8-4.19-17.8-15.36v-10.01c0-11.17,4.96-15.36,17.8-15.36h19.65Zm-27.72,24.73c0,6.11,1.91,7.91,8.46,7.91h18.89c6.55,0,8.46-1.8,8.46-7.91v-8.73c0-6.11-1.91-7.91-8.46-7.91h-18.89c-6.55,0-8.46,1.8-8.46,7.91v8.73Z"/>
      <path class="cls-1" d="m1039.93,179.16c4.07,0,4.96.46,7.38,3.43l23.65,28.4c.19.29.44.41.83.41h.57c.32,0,.51-.17.51-.58v-30.37c0-.87.45-1.28,1.4-1.28h6.68c.95,0,1.4.41,1.4,1.28v33.4c0,4.71-1.84,6.05-5.72,6.05h-5.47c-3.88,0-4.83-.35-7.38-3.43l-23.72-28.4c-.26-.29-.45-.41-.83-.41h-.57c-.38,0-.51.17-.51.58v30.37c0,.87-.44,1.28-1.4,1.28h-6.68c-.95,0-1.46-.41-1.46-1.28v-33.4c0-4.71,1.84-6.05,5.72-6.05h5.59Z"/>
      <path class="cls-1" d="m1107.53,179.16c.95,0,1.4.41,1.4,1.28v38.17c0,.87-.45,1.28-1.4,1.28h-6.87c-.95,0-1.46-.41-1.46-1.28v-38.17c0-.87.51-1.28,1.46-1.28h6.87Z"/>
      <path class="cls-1" d="m1171.76,179.16c.95,0,1.4.41,1.4,1.28v5.7c0,.87-.45,1.34-1.4,1.34h-28.3c-6.55,0-8.46,1.75-8.46,7.91v8.26c0,6.17,1.91,7.97,8.46,7.97h28.3c.95,0,1.4.41,1.4,1.28v5.7c0,.87-.45,1.28-1.4,1.28h-28.68c-12.84,0-17.8-4.19-17.8-15.36v-10.01c0-11.17,4.96-15.36,17.8-15.36h28.68Z"/>
    </g>
  </g>
</svg>