<svg width="56" height="56" viewBox="0 0 56 56" fill="none" xmlns="http://www.w3.org/2000/svg">
<g clip-path="url(#clip0_1062_181)">
<path d="M28 55.041C43.1878 55.041 55.5 42.7288 55.5 27.541C55.5 12.3532 43.1878 0.0410156 28 0.0410156C12.8122 0.0410156 0.5 12.3532 0.5 27.541C0.5 42.7288 12.8122 55.041 28 55.041Z" fill="#50B748"/>
<path d="M28.0002 12.645C36.2411 12.645 42.8961 19.3 42.8961 27.5409C42.8961 35.7817 36.2411 42.4367 28.0002 42.4367C25.9142 42.4399 23.8509 42.0045 21.9441 41.1586C20.0374 40.3127 18.3298 39.0753 16.9323 37.5267C15.5347 35.9781 14.4784 34.1529 13.832 32.1697C13.1856 30.1864 12.9634 28.0893 13.18 26.0146C13.5538 22.3456 15.277 18.9462 18.0155 16.4758C20.7539 14.0054 24.3122 12.6402 28.0002 12.645ZM27.9819 18.3604C27.6826 18.3765 27.4003 18.5048 27.1913 18.7197C26.9823 18.9346 26.862 19.2204 26.8544 19.52V26.395H19.9794C19.6763 26.4024 19.3874 26.525 19.1716 26.7379C18.9557 26.9508 18.8291 27.2379 18.8175 27.5409C18.8291 27.8438 18.9557 28.131 19.1716 28.3439C19.3874 28.5567 19.6763 28.6793 19.9794 28.6867H26.8544V35.5617C26.8617 35.8648 26.9843 36.1537 27.1972 36.3695C27.4101 36.5854 27.6973 36.712 28.0002 36.7236C28.3032 36.712 28.5903 36.5854 28.8032 36.3695C29.0161 36.1537 29.1387 35.8648 29.1461 35.5617V28.6867H36.0211C36.3241 28.6793 36.613 28.5567 36.8289 28.3439C37.0447 28.131 37.1714 27.8438 37.1829 27.5409C37.1714 27.2379 37.0447 26.9508 36.8289 26.7379C36.613 26.525 36.3241 26.4024 36.0211 26.395H29.1461V19.52C29.1379 19.2143 29.0125 18.9234 28.7958 18.7075C28.5791 18.4917 28.2877 18.3674 27.9819 18.3604Z" fill="white"/>
</g>
<defs>
<clipPath id="clip0_1062_181">
<rect width="55" height="55" fill="white" transform="translate(0.5 0.0410156)"/>
</clipPath>
</defs>
</svg>
