<?xml version="1.0" encoding="UTF-8"?>
<svg id="Layer_1" data-name="Layer 1" xmlns="http://www.w3.org/2000/svg" viewBox="0 0 903.94 883.51">
  <defs>
    <style>
      .cls-1 {
        fill: #fff;
      }
    </style>
  </defs>
  <path class="cls-1" d="m799.22,400.19c-97.25,26.63-184.42,90.07-238.81,184.28-54.39,94.21-65.76,201.5-40.21,299.03l95.29-55.04c-7.72-48.35-3.09-97.86,13.44-143.95l222.67,128.54,52.33-30.25v-60.41l-222.67-128.53c31.65-37.37,72.22-66.15,117.96-83.66v-110.01Zm-694.54,0v110.01c45.74,17.51,86.31,46.29,117.96,83.66L0,722.4v60.41l52.33,30.25,222.64-128.54c16.9,47.04,20.99,96.54,13.48,143.95l95.25,55.04c25.55-97.54,14.19-204.82-40.21-299.03-52.13-90.57-137.99-156.82-238.81-184.29ZM451.95,0l-52.33,30.21v257.08c-49.21-8.89-94.09-30.11-131.4-60.34l-95.33,55c71.69,70.9,170.27,114.67,279.07,114.67s207.37-43.77,279.07-114.67l-95.29-55c-38.03,30.85-83.24,51.61-131.43,60.34V30.21L451.95,0Z"/>
</svg>