<?xml version="1.0" encoding="utf-8"?>
<!-- Generator: Adobe Illustrator 25.2.0, SVG Export Plug-In . SVG Version: 6.00 Build 0)  -->
<svg version="1.1" xmlns="http://www.w3.org/2000/svg" xmlns:xlink="http://www.w3.org/1999/xlink" x="0px" y="0px"
	 viewBox="0 0 1122 1122" style="enable-background:new 0 0 1122 1122;" xml:space="preserve">
<style type="text/css">
	.st0{fill:none;stroke:#FFFFFF;stroke-miterlimit:10;}
	.st1{fill:#FFFFFF;}
	.st2{fill:#069AFF;}
	.st3{fill:#EDF3F7;}
</style>
<g id="BG">
</g>
<g id="Object">
	<polyline class="st0" points="385.91,445.28 299.98,445.28 299.98,316.39 175.38,316.39 	"/>
	<polyline class="st0" points="360.13,504 249.85,505.43 249.85,376.54 156.76,375.11 	"/>
	<polyline class="st0" points="176.97,834.83 298.54,834.83 298.54,705.93 360.76,705.93 	"/>
	<polyline class="st0" points="166.79,766.08 252.72,766.08 252.72,637.19 310.48,637.19 	"/>
	<line class="st0" x1="358.7" y1="572.74" x2="178.24" y2="572.74"/>
	<circle class="st1" cx="155.33" cy="313.52" r="24.35"/>
	<circle class="st1" cx="149.44" cy="373.67" r="24.35"/>
	<circle class="st1" cx="152.31" cy="572.74" r="24.35"/>
	<circle class="st1" cx="153.74" cy="771.81" r="24.35"/>
	<circle class="st1" cx="153.74" cy="834.83" r="24.35"/>
	<path class="st2" d="M987.35,272c-152.53-2.5-273.9-90.16-306.26-115.84C648.75,181.84,527.38,269.5,374.83,272
		c0,0-149.85,508.76,306.26,676.29C1137.21,780.76,987.35,272,987.35,272z"/>
	<g>
		<path class="st3" d="M681.09,916.54l-3.67-1.35c-411.12-151-280.85-611.1-279.51-615.73l2.24-7.55l7.86-0.13
			c132-2.16,237.31-77.79,266.44-100.91l6.64-5.28l6.66,5.28c29.14,23.12,134.43,98.75,266.44,100.91l7.86,0.13l2.22,7.55
			c1.36,4.63,131.63,464.73-279.48,615.73L681.09,916.54z M416.46,312.96c-6.81,27.14-28.12,124.77-13.56,234.15
			C425.47,716.39,519.06,833,681.09,893.74c360.03-135.08,279.21-522.13,264.63-580.79c-126.3-4.81-227.68-72.14-264.63-100.19
			C644.16,240.81,542.76,308.14,416.46,312.96z"/>
	</g>
	<g>
		<g>
			<path class="st3" d="M684.64,518.88h-21.88c-37.23,0-67.52-30.29-67.52-67.52v-19.36c0-37.23,30.29-67.51,67.52-67.51h21.88
				c37.23,0,67.52,30.28,67.52,67.51v19.36C752.17,488.59,721.88,518.88,684.64,518.88z M662.76,384.73
				c-26.06,0-47.29,21.2-47.29,47.26v19.36c0,26.07,21.22,47.27,47.29,47.27h21.88c26.07,0,47.26-21.2,47.26-47.27v-19.36
				c0-26.06-21.2-47.26-47.26-47.26H662.76z"/>
		</g>
		<path class="st3" d="M787.59,614.63c0,36.43-29.8,66.23-66.23,66.23h-95.34c-36.42,0-66.22-29.8-66.22-66.23v-95.34
			c0-36.42,29.8-66.22,66.22-66.22h95.34c36.43,0,66.23,29.8,66.23,66.22V614.63z"/>
		<path class="st3" d="M762.33,467.41c8.94,11.29,14.34,25.51,14.34,40.95v95.34c0,36.43-29.8,66.23-66.23,66.23h-95.34
			c-15.44,0-29.65-5.39-40.95-14.33c12.15,15.35,30.89,25.26,51.88,25.26h95.34c36.43,0,66.23-29.8,66.23-66.23v-95.34
			C787.59,498.31,777.68,479.56,762.33,467.41z"/>
	</g>
	<g>
		<path class="st2" d="M707.87,540.87c0-18.88-15.3-34.19-34.18-34.19c-18.87,0-34.18,15.31-34.18,34.19
			c0,13.53,7.94,25.12,19.36,30.65l-16.99,64.04c-0.65,3.19,1.48,5.81,4.74,5.81h54.14c3.26,0,5.4-2.62,4.75-5.81l-16.99-64.04
			C699.93,565.99,707.87,554.4,707.87,540.87z"/>
	</g>
	<ellipse class="st2" cx="951.46" cy="305.78" rx="90.37" ry="90.37"/>
	<path class="st1" d="M1007.17,295.93c-2.16-3.6-5.08-6.25-8.72-7.99c0.86-2.35,1.3-4.93,1.3-7.8c0-6.15-2.05-11.39-6.17-15.73
		c-4.12-4.36-9.08-6.52-14.89-6.52c-2.62,0-5.08,0.48-7.42,1.43c-1.82-3.73-4.46-6.74-7.88-9.04c-3.42-2.27-7.17-3.44-11.24-3.44
		c-4.08,0-7.84,1.16-11.25,3.46c-3.44,2.3-6.06,5.31-7.88,9.04c-2.34-0.96-4.82-1.43-7.42-1.43c-5.81,0-10.79,2.19-14.96,6.51
		c-4.16,4.32-6.24,9.58-6.24,15.72c0,2.6,0.48,5.22,1.43,7.81c-3.64,1.74-6.56,4.4-8.72,7.99c-2.17,3.59-3.26,7.58-3.26,11.91
		c0,4.07,0.98,7.85,2.91,11.31c1.96,3.46,4.58,6.14,7.88,8.06c-0.16,1.23-0.25,2.18-0.25,2.87c0,6.14,2.07,11.4,6.24,15.73
		c4.16,4.35,9.15,6.51,14.96,6.51c2.62,0,5.08-0.48,7.42-1.43c1.82,3.82,4.42,6.85,7.81,9.11c3.37,2.27,7.15,3.39,11.32,3.39
		c4.07,0,7.83-1.14,11.24-3.47c3.43-2.3,6.06-5.3,7.88-9.03c2.35,0.95,4.83,1.43,7.42,1.43c5.81,0,10.77-2.17,14.89-6.51
		c4.1-4.33,6.17-9.55,6.17-15.73c0-1.3-0.05-2.25-0.14-2.87c3.31-1.9,5.92-4.6,7.88-8.06c1.96-3.47,2.94-7.25,2.94-11.31l0,0
		C1010.43,303.53,1009.33,299.54,1007.17,295.93z"/>
	<path class="st2" d="M973.73,289.38l-24.07,36.04l0,0c-0.78,1.31-1.94,1.95-3.46,1.97c-0.77,0-1.57-0.25-2.34-0.78l-0.66-0.52
		l-13.41-13.41c-0.78-0.8-1.16-1.77-1.16-2.94c0-1.18,0.39-2.16,1.16-2.93c0.86-0.77,1.84-1.18,2.99-1.24
		c1.11-0.04,2.12,0.37,2.98,1.24l9.77,9.75l21.19-31.87c0.69-0.97,1.59-1.51,2.73-1.69c1.12-0.16,2.17,0.04,3.12,0.66
		c0.95,0.59,1.52,1.48,1.75,2.6C974.53,287.37,974.34,288.42,973.73,289.38z"/>
</g>
</svg>
