<svg width="59" height="59" viewBox="0 0 59 59" fill="none" xmlns="http://www.w3.org/2000/svg">
<path d="M28.2815 0.845459C20.657 0.845459 12.7152 2.13624 7.09054 7.32101C1.81684 13.2822 0.61499 21.1903 0.61499 28.548V30.8123C0.61499 38.42 1.90577 46.4339 7.09054 52.061C13.0854 57.3635 21.032 58.5341 28.4233 58.5341H30.4761C38.1198 58.5341 46.1674 57.2602 51.8281 52.0586C57.1355 46.0613 58.3036 38.1027 58.3036 30.7066V28.6562C58.3036 21.0125 57.0297 12.9649 51.8281 7.32101C45.8669 2.03288 37.978 0.845459 30.6179 0.845459H28.2815ZM29.4593 9.27041C32.4495 9.27041 34.8821 11.6501 34.8821 14.573C34.8821 17.1329 33.2355 19.3227 30.7597 19.8154V23.6373C34.3172 24.1517 36.8363 27.0746 36.8363 30.6897C36.8363 34.6654 33.5264 37.9008 29.4569 37.9008C25.3899 37.9008 22.0824 34.6654 22.0824 30.6897C22.0824 30.2811 22.1232 29.8845 22.1905 29.4951L18.4985 28.3221C18.018 29.1455 17.3292 29.8278 16.5013 30.3004C15.6735 30.773 14.7357 31.0192 13.7824 31.0142C13.2128 31.0142 12.6503 30.9253 12.1046 30.7498C9.26108 29.8484 7.69868 26.851 8.6217 24.0675C8.9868 22.9919 9.68189 22.0588 10.608 21.4011C11.5342 20.7434 12.6442 20.3946 13.78 20.4043C14.3497 20.4043 14.9122 20.4909 15.4578 20.6639C16.1318 20.8743 16.7575 21.2158 17.2991 21.6687C17.8407 22.1216 18.2875 22.6771 18.6139 23.3032C19.1042 24.243 19.2917 25.2814 19.1715 26.3054L22.8612 27.4784C23.9188 25.4112 26.1735 23.9858 28.5916 23.6349V19.8154C26.1182 19.3227 24.0342 17.1329 24.0342 14.573C24.0342 11.6477 26.4667 9.27041 29.4593 9.27041ZM29.4593 11.3905C27.6638 11.3905 26.2047 12.8183 26.2047 14.573C26.2047 16.3277 27.6638 17.7554 29.4593 17.7554C31.2525 17.7554 32.7139 16.3277 32.7139 14.573C32.7139 12.8183 31.2525 11.3905 29.4593 11.3905ZM45.1362 20.4043C47.4918 20.4043 49.5662 21.8778 50.2945 24.07C50.7416 25.416 50.6263 26.8534 49.97 28.1154C49.3114 29.3797 48.1913 30.3147 46.8116 30.7498C46.2659 30.9253 45.7035 31.0142 45.1338 31.0142C44.1805 31.0192 43.2428 30.773 42.4149 30.3004C41.587 29.8278 40.8982 29.1455 40.4178 28.3221L38.8938 28.8052L38.2256 26.7909L39.7447 26.3054C39.6136 25.08 39.9126 23.8471 40.5905 22.8179C41.2685 21.7887 42.2832 21.0272 43.4608 20.6639C44.0041 20.4909 44.5665 20.4043 45.1362 20.4043ZM13.7776 22.5268C12.3642 22.5268 11.1215 23.4113 10.6841 24.7262C10.1312 26.3943 11.0663 28.1923 12.7729 28.7355C13.0998 28.8389 13.4387 28.8918 13.78 28.8918C15.1934 28.8918 16.4361 28.0072 16.8736 26.6924C17.0067 26.2955 17.058 25.8758 17.0246 25.4586C16.9911 25.0414 16.8735 24.6352 16.6789 24.2647C16.4828 23.8893 16.2146 23.5564 15.8895 23.2849C15.5645 23.0135 15.1891 22.809 14.7848 22.683C14.4584 22.579 14.1202 22.5263 13.7776 22.5268ZM45.1338 22.5268C44.7925 22.5268 44.456 22.5773 44.1267 22.683C43.7244 22.8064 43.3508 23.0085 43.0274 23.2776C42.704 23.5467 42.4374 23.8774 42.243 24.2505C42.0486 24.6236 41.9304 25.0316 41.8952 25.4508C41.86 25.87 41.9085 26.2921 42.0378 26.6924C42.4753 28.0072 43.7204 28.8918 45.1314 28.8918C45.4727 28.8918 45.8117 28.8389 46.141 28.7355C46.9678 28.4711 47.6385 27.9111 48.0327 27.1515C48.4293 26.3943 48.4966 25.5338 48.2298 24.7262C48.0108 24.0804 47.5936 23.5202 47.0378 23.1254C46.4819 22.7305 45.8156 22.521 45.1338 22.5268ZM29.4593 26.0218C26.8273 26.0218 24.6856 28.1154 24.6856 30.6897C24.6856 33.2617 26.8249 35.3553 29.4593 35.3553C32.089 35.3553 34.2307 33.2641 34.2307 30.6921C34.2307 28.1154 32.0914 26.0218 29.4593 26.0218ZM22.9549 37.634L24.7096 38.8815L23.7722 40.1459C25.4764 41.9655 25.6975 44.773 24.1568 46.845C23.14 48.2151 21.4983 49.0323 19.7652 49.0323C18.6163 49.0323 17.513 48.679 16.5803 48.018C16.0071 47.6167 15.5202 47.1046 15.1483 46.5119C14.7765 45.9192 14.5273 45.258 14.4154 44.5673C14.3036 43.8766 14.3314 43.1705 14.4973 42.4907C14.6631 41.811 14.9635 41.1714 15.3809 40.6098C16.1284 39.614 17.1926 38.9024 18.3985 38.5922C19.6043 38.282 20.8799 38.3917 22.0151 38.9031L22.9549 37.634ZM35.9589 37.634L36.9012 38.9031C38.0367 38.3939 39.3116 38.2854 40.5169 38.5955C41.7222 38.9056 42.7865 39.6158 43.5354 40.6098C43.9524 41.1715 44.2526 41.8111 44.4182 42.4908C44.5839 43.1705 44.6116 43.8765 44.4998 44.5671C44.388 45.2577 44.1389 45.9189 43.7672 46.5116C43.3956 47.1043 42.9089 47.6165 42.3359 48.018C41.4059 48.6793 40.2922 49.0332 39.151 49.0299C38.2994 49.0316 37.4591 48.8348 36.6968 48.4551C35.9345 48.0754 35.2712 47.5233 34.7595 46.8425C34.0274 45.8591 33.6647 44.6495 33.735 43.4255C33.8053 42.2015 34.3042 41.0414 35.1441 40.1483L34.2066 38.8815L35.9589 37.634ZM19.7724 40.5425C18.7316 40.5425 17.7461 41.0352 17.1356 41.8573C16.078 43.2755 16.4049 45.2705 17.8567 46.3017C18.5564 46.8006 19.4235 47.0063 20.2727 46.8747C21.122 46.7431 21.8861 46.2847 22.4021 45.5974C23.4597 44.1793 23.1352 42.1842 21.681 41.1506C21.1235 40.7546 20.4562 40.5428 19.7724 40.5449V40.5425ZM39.1438 40.5425C38.4539 40.5425 37.7953 40.754 37.2329 41.153C36.8893 41.394 36.5975 41.7014 36.3747 42.057C36.1518 42.4126 36.0025 42.8093 35.9355 43.2235C35.8685 43.6378 35.8852 44.0613 35.9846 44.469C36.084 44.8768 36.264 45.2605 36.5142 45.5974C37.0305 46.2842 37.7946 46.7422 38.6437 46.8737C39.4927 47.0053 40.3596 46.8 41.0595 46.3017C41.4037 46.0609 41.696 45.7536 41.9193 45.3978C42.1425 45.0421 42.2922 44.6452 42.3594 44.2306C42.4267 43.816 42.4101 43.3922 42.3107 42.9841C42.2113 42.5761 42.031 42.1921 41.7807 41.8549C41.4729 41.4469 41.0745 41.1161 40.6168 40.8888C40.1591 40.6614 39.6548 40.5437 39.1438 40.5449V40.5425Z" fill="#FAFAFA"/>
</svg>
